<svg enable-background="new 0 0 1024 1024" height="1024" image-rendering="optimizeSpeed" viewBox="0 0 1024 1024" width="1024" xmlns="http://www.w3.org/2000/svg" xmlns:xlink="http://www.w3.org/1999/xlink"><mask id="a"><path d="m452.299 360.506h.026c-22.723 7.87-42.58 20.326-59.493 37.395-17.042 17.199-29.081 36.951-36.169 59.206l-.013-.013.013.013c-7.558 23.766-8.626 47.818-3.18 72.079v-.026h.026c4.561 20.613 11.909 38.02 21.994 52.222l-.013.013.026.052.013.013c10.059 14.385 22.281 25.303 36.613 32.756l-.052-.026.039.013-.013-.013c13.446 7.14 27.909 10.867 43.31 11.153l-.013.014h.026l.013.013c14.332.312 28.196-2.398 41.564-8.053l-.013-.013.039-.013c13.394-5.733 24.808-13.759 34.216-24.156 10.293-11.336 17.198-24.131 20.716-38.385l-.013-.013.013-.039c3.857-15.271 3.414-31.037-1.329-47.349l-.013.013v-.027l.013.014c-4.43-15.844-13.264-31.558-26.475-47.063-5.316-6.202-12.066-9.616-20.222-10.215-8.183-.625-15.349 1.694-21.525 6.984-6.202 5.316-9.616 12.013-10.215 20.169-.625 8.183 1.694 15.349 6.958 21.499 7.14 8.339 12.013 16.704 14.645 25.121l-.013.013v.026l.013.013c1.668 5.733 1.902 11.283.703 16.652-.026.026-.026.026-.026.026-1.172 4.716-3.492 8.964-6.931 12.664l-.013.013-.052.053.013-.014c-3.779 4.092-8.313 7.271-13.603 9.538-.026-.026-.026-.026-.052 0-5.525 2.345-11.284 3.466-17.199 3.336l-.013.013h-.026l.013.013c-5.994-.105-11.623-1.564-16.834-4.326h-.026l-.04-.013.014.013c-6.098-3.336-11.362-8.131-15.714-14.359l-.013-.013.026.052.013-.013c-5.785-8.547-10.059-18.97-12.795-31.244h-.026v-.026c-3.101-13.89-2.502-27.623 1.824-41.226l.013.013.013.013c4.222-13.342 11.492-25.146 21.759-35.466 10.502-10.554 22.776-18.293 36.874-23.166h-.026-.026c14.879-5.134 30.202-6.541 46.02-4.17h.052c10.528 1.616 20.717 4.978 30.463 10.085l-.052-.026.039.013-.013-.013c9.72 5.082 18.528 11.596 26.398 19.518.026.026.026.026.052.052 7.922 7.974 14.436 16.887 19.544 26.737l-.013.013.026.052.013.013c5.186 9.981 8.652 20.43 10.371 31.323l-.013.013.013.013h.026c3.623 24.209-1.355 47.532-14.931 69.968h-.026l.013-.013.013.013c-17.59 28.274-46.203 52.561-85.839 72.861-7.27 3.727-12.143 9.486-14.645 17.251-2.501 7.766-1.902 15.297 1.824 22.567 3.675 7.271 9.434 12.144 17.199 14.645 7.766 2.502 15.297 1.903 22.594-1.798 51.023-26.111 87.532-57.772 109.525-94.932 21.212-35.128 28.795-71.689 22.75-109.683h-.026l.013.013.013-.013c-2.684-17.225-8.131-33.72-16.339-49.538-.026-.026-.026-.026-.026-.026-7.896-15.192-17.929-28.925-30.124-41.225l-.039-.039.013.013c-12.222-12.274-25.877-22.333-40.913-30.228h-.026l-.039-.014.013.014c-15.714-8.209-32.053-13.603-49.043-16.157h-.026l-.065-.013.013-.013c-25.46-3.779-50.164-1.485-74.138 6.801" fill="#fff" image-rendering="optimizeSpeed"/></mask><path d="m969.65 351.3q-8.6-20.85-19.4-40.85c-4.05-7.55-8.35-15.05-12.9-22.4-19.55-31.7-43.4-61.65-71.55-89.8-92.15-92.15-203.45-138.25-333.8-138.25s-241.6 46.1-333.75 138.25-138.25 203.4-138.25 333.75 46.1 241.65 138.25 333.8 203.4 138.2 333.75 138.2 241.65-46.05 333.8-138.2c50.75-50.8 87.55-107.4 110.35-169.75 18.55-50.85 27.85-105.5 27.85-164.05 0-44.9-5.45-87.55-16.4-127.95-1.25-4.55-2.55-9.1-3.9-13.6-4.1-13.3-8.8-26.35-14.05-39.15z" fill-opacity=".098039"/><path d="m849.15 181.65c-1.1-1.15-2.2-2.25-3.3-3.35-34.35-34.35-71.3-62.25-110.9-83.75-6.7-3.65-13.45-7.1-20.65-10.55-35.05-16.75-72.5-28.85-111.9-36-3.1-.55-6.2-1.1-9.35-1.6-.3-.05-.6-.1-.85-.15-4.2-.65-8.4-1.25-12.75-1.85-4.05-.5-8.2-1-12.4-1.45-3.6-.4-7.2-.75-11-1.05-4.45-.4-9.15-.75-13.9-1-.45-.05-.85-.05-1.3-.05-9.5-.55-19.1-.8-28.8-.8-9.35 0-18.6.25-27.9.75-1.7.1-3.4.2-5.1.3-3.65.2-7.3.45-11 .8-6.1.5-12.2 1.1-18.25 1.85-1.8.2-3.55.4-5.2.65-43.6 5.75-84.7 17.2-123.3 34.35-3.85 1.7-7.7 3.45-11.55 5.3-47.5 22.65-91.25 54.05-131.45 94.25-.55.55-1.05 1.05-1.55 1.55-.65.65-1.25 1.25-1.85 1.9-40.45 41.15-71.75 86.05-94 134.75-7.85 17.15-14.5 34.6-20.05 52.5q-20.8 67.2-20.8 143.05c0 125.55 42.75 233.4 127.95 323.2 2.45 2.6 4.65 4.9 6.9 7.2.6.6 1.2 1.2 1.85 1.85l1.55 1.55c40.4 40.35 84.45 71.9 131.45 94.25 3.95 1.85 7.75 3.6 11.55 5.3 5.55 2.45 10.8 4.65 16.1 6.75 6.45 2.6 12.6 4.85 18.8 6.95 28.6 9.8 58.2 16.7 88.4 20.65 1.9.25 3.55.45 5.2.65 11.5 1.4 22.85 2.35 34.35 2.95h.4c8.5.45 16.6.7 24.5.7h3c9.75 0 19.35-.25 28.8-.7.45-.05.85-.05 1.3-.1 2.5-.15 4.75-.3 6.95-.45 10.3-.75 20.45-1.75 30.35-3.05 7.8-1.05 15.45-2.25 22.95-3.6 1.9-.35 3.65-.7 5.4-1.05 7.95-1.55 15.8-3.3 23.4-5.15 28.9-7.25 56.6-17.2 83.1-29.75 7-3.4 13.85-6.9 20.65-10.55 25.2-13.7 49.35-30 72.4-48.85 13.25-10.9 26.05-22.5 38.5-34.95l3.3-3.3c.65-.65 1.25-1.3 1.9-1.95 1.7-1.75 3.4-3.55 5.1-5.35 20.45-21.6 38.35-44.1 53.8-67.55 17.55-26.55 31.95-54.45 43.25-83.65 3.95-10.25 7.55-20.65 10.75-31.15 11.7-38.65 18.3-79.4 19.8-122.35.2-6.05.3-12.25.3-18.5 0-.65 0-1.35 0-2 0-.35 0-.65 0-1-.2-40.65-4.95-79.5-14.3-117-1.1-4.35-2.35-9-3.65-13.6-2.25-7.85-4.75-15.8-7.55-23.8-.3-.75-.6-1.65-.9-2.55-4.25-12-9-23.8-14.4-35.6-2.7-5.95-5.65-12-8.75-18.05-3.8-7.4-7.95-14.95-12.3-22.4-19.05-32.4-42.7-63.2-71.15-92.45-.65-.65-1.25-1.3-1.9-1.95z" fill="#68471f"/><path d="m785.05 245.3-92.125 30.825-179.425-179.425-130.65 251.625-282.75 165.725 173.4 173.4-32.3 91.3 200.625 200.625.025.025c1.05.15 1.9.25 2.75.35 1.9.25 3.55.45 5.2.65 11.5 1.4 22.85 2.35 34.35 2.95h.4c8.5.45 16.6.7 24.5.7q1.5 0 3 0c9.75 0 19.35-.25 28.8-.7.45-.05.85-.05 1.3-.1 2.5-.15 4.75-.3 6.95-.45 10.3-.75 20.45-1.75 30.35-3.05 7.8-1.05 15.45-2.25 22.95-3.6 1.9-.35 3.65-.7 5.4-1.05 7.95-1.55 15.8-3.3 23.4-5.15 28.9-7.25 56.6-17.2 83.1-29.75 7-3.4 13.85-6.9 20.65-10.55 25.2-13.7 49.35-30 72.4-48.85 13.25-10.9 26.05-22.5 38.5-34.95l3.3-3.3c.65-.65 1.25-1.3 1.9-1.95 1.7-1.75 3.4-3.55 5.1-5.35 20.45-21.6 38.35-44.1 53.8-67.55 17.55-26.55 31.95-54.45 43.25-83.65 3.95-10.25 7.55-20.65 10.75-31.15 11.7-38.65 18.3-79.4 19.8-122.35.2-6.05.3-12.25.3-18.5 0-.65 0-1.35 0-2 0-.35 0-.65 0-1-.1-23.8-1.8-47-5.05-69.8l-.025-.025z" fill-opacity=".2"/><path d="m101.3 510.15-3 1.9.25.15h261.95l.15-.15-101.8-101.8zm412.35-413.2-.15-.25-1.9 3-99.9 157.55 101.8 101.8.15-.15z" fill="#e2bd7c"/><path d="m98.55 512.2 6.25 3.95 154.05 97.7 101.65-101.65zm419.05-409-3.95-6.25v261.95l101.65-101.65z" fill="#bea371"/><path d="m929.25 512.05-3-1.9-157.55-99.9-101.8 101.8.15.15h261.95zm-415.6 153.4-.15-.15-101.8 101.8 99.9 157.55 1.9 3 .15-.25z" fill="#917643"/><path d="m922.75 516.15 6.25-3.95h-261.95l101.65 101.65zm-307.45 250.95-101.65-101.65v261.95l3.95-6.25z" fill="#644725"/><path d="m785.05 245.3-2.7.55-140.8 31.55v111.4h.15l143.3-143.3zm-400.8 135.5v-.15l-143.3-143.3-.2-.05.55 2.7 31.55 140.8z" fill="#c2a46c"/><path d="m783.7 251.1 1.3-5.6-143.3 143.3h111.25zm-544.3 532.75-.05.2 2.7-.55 140.8-31.55v-111.4h-.15zm539.9-.9.2.05-.55-2.7-31.55-140.8h-111.4v.15z" fill="#8e7548"/><path d="m240.7 778.25-1.3 5.6 143.3-143.3h-111.25z" fill="#c6a566"/><path d="m773.7 781.65 5.6 1.3-143.3-143.3v111.25z" fill="#644725"/><path d="m384.25 380.65v-111.25l-137.7-30.75-5.6-1.3z" fill="#e2bd7c"/><path d="m686 337.85 26.85-26.85c-52.05-52.05-114.3-79.7-186.65-82.85-4.65-.2-9.4-.3-14.2-.3-4.75 0-9.45.1-14.1.3-72.35 3.15-134.6 30.8-186.65 82.85-55.45 55.45-83.2 122.45-83.25 200.9 0 78.4 27.75 145.3 83.2 200.75l26.9-26.9c-48.05-48.05-72.05-106-72.05-173.95s24-125.9 72.05-173.95 106-72.05 173.95-72.05 125.9 24 173.95 72.05z" fill="#d9bb87"/><path d="m712.85 311-26.85 26.85c48.05 48.05 72.05 106 72.05 173.95s-24 125.9-72.05 173.95-106 72.05-173.95 72.05-125.9-24-173.95-72.05l-26.9 26.9c52.1 52.1 114.35 79.75 186.7 82.9 4.65.2 9.4.3 14.15.35 4.75-.05 9.5-.15 14.15-.35 72.35-3.15 134.6-30.8 186.7-82.9 55.45-55.45 83.15-122.4 83.15-200.8 0-78.45-27.75-145.4-83.2-200.85z" fill="#bea371"/><path d="m686 685.75c48.05-48.05 72.05-106 72.05-173.95s-24-125.9-72.05-173.95l-347.9 347.9c48.05 48.05 106 72.05 173.95 72.05s125.9-24 173.95-72.05z" fill="#432f18"/><path d="m512.05 265.8c-67.95 0-125.9 24-173.95 72.05s-72.05 106-72.05 173.95 24 125.9 72.05 173.95l347.9-347.9c-48.05-48.05-106-72.05-173.95-72.05z" fill="#50381d"/><path d="m452.299 360.506h.026c-22.723 7.87-42.58 20.326-59.493 37.395-17.042 17.199-29.081 36.951-36.169 59.206l-.013-.013.013.013c-7.558 23.766-8.626 47.818-3.18 72.079v-.026h.026c4.561 20.613 11.909 38.02 21.994 52.222l-.013.013.026.052.013.013c10.059 14.385 22.281 25.303 36.613 32.756l-.052-.026.039.013-.013-.013c13.446 7.14 27.909 10.867 43.31 11.153l-.013.014h.026l.013.013c14.332.312 28.196-2.398 41.564-8.053l-.013-.013.039-.013c13.394-5.733 24.808-13.759 34.216-24.156 10.293-11.336 17.198-24.131 20.716-38.385l-.013-.013.013-.039c3.857-15.271 3.414-31.037-1.329-47.349l-.013.013v-.027l.013.014c-4.43-15.844-13.264-31.558-26.475-47.063-5.316-6.202-12.066-9.616-20.222-10.215-8.183-.625-15.349 1.694-21.525 6.984-6.202 5.316-9.616 12.013-10.215 20.169-.625 8.183 1.694 15.349 6.958 21.499 7.14 8.339 12.013 16.704 14.645 25.121l-.013.013v.026l.013.013c1.668 5.733 1.902 11.283.703 16.652-.026.026-.026.026-.026.026-1.172 4.716-3.492 8.964-6.931 12.664l-.013.013-.052.053.013-.014c-3.779 4.092-8.313 7.271-13.603 9.538-.026-.026-.026-.026-.052 0-5.525 2.345-11.284 3.466-17.199 3.336l-.013.013h-.026l.013.013c-5.994-.105-11.623-1.564-16.834-4.326h-.026l-.04-.013.014.013c-6.098-3.336-11.362-8.131-15.714-14.359l-.013-.013.026.052.013-.013c-5.785-8.547-10.059-18.97-12.795-31.244h-.026v-.026c-3.101-13.89-2.502-27.623 1.824-41.226l.013.013.013.013c4.222-13.342 11.492-25.146 21.759-35.466 10.502-10.554 22.776-18.293 36.874-23.166h-.026-.026c14.879-5.134 30.202-6.541 46.02-4.17h.052c10.528 1.616 20.717 4.978 30.463 10.085l-.052-.026.039.013-.013-.013c9.72 5.082 18.528 11.596 26.398 19.518.026.026.026.026.052.052 7.922 7.974 14.436 16.887 19.544 26.737l-.013.013.026.052.013.013c5.186 9.981 8.652 20.43 10.371 31.323l-.013.013.013.013h.026c3.623 24.209-1.355 47.532-14.931 69.968h-.026l.013-.013.013.013c-17.59 28.274-46.203 52.561-85.839 72.861-7.27 3.727-12.143 9.486-14.645 17.251-2.501 7.766-1.902 15.297 1.824 22.567 3.675 7.271 9.434 12.144 17.199 14.645 7.766 2.502 15.297 1.903 22.594-1.798 51.023-26.111 87.532-57.772 109.525-94.932 21.212-35.128 28.795-71.689 22.75-109.683h-.026l.013.013.013-.013c-2.684-17.225-8.131-33.72-16.339-49.538-.026-.026-.026-.026-.026-.026-7.896-15.192-17.929-28.925-30.124-41.225l-.039-.039.013.013c-12.222-12.274-25.877-22.333-40.913-30.228h-.026l-.039-.014.013.014c-15.714-8.209-32.053-13.603-49.043-16.157h-.026l-.065-.013.013-.013c-25.46-3.779-50.164-1.485-74.138 6.801" fill="#9fe6ff"/><g mask="url(#a)"><path d="m399.06 511.44c-2.762 0-5.159.99-7.114 2.944-1.954 1.955-2.944 4.352-2.97 7.141.026 2.788 1.016 5.185 2.97 7.14 1.955 1.954 4.352 2.944 7.114 2.944 2.815 0 5.212-.99 7.167-2.944 1.954-1.955 2.944-4.352 2.918-7.14.026-2.789-.964-5.186-2.918-7.141-1.955-1.954-4.352-2.944-7.167-2.944zm21.212-43.884c-5.68 0-10.553 2.007-14.593 6.046-4.039 4.039-6.045 8.912-6.045 14.593s2.006 10.554 6.045 14.593c4.04 4.039 8.913 6.046 14.593 6.046 5.681 0 10.554-2.007 14.593-6.046 4.04-4.039 6.046-8.912 6.046-14.593s-2.006-10.554-6.046-14.593c-4.039-4.039-8.912-6.046-14.593-6.046zm34.789 78.933c-4.247 4.248-6.384 9.355-6.384 15.349 0 5.993 2.137 11.101 6.384 15.349 4.248 4.247 9.329 6.358 15.323 6.358 5.993 0 11.127-2.111 15.375-6.358 4.247-4.248 6.332-9.356 6.332-15.349 0-5.994-2.085-11.101-6.332-15.349-4.248-4.248-9.382-6.358-15.375-6.358-5.994 0-11.075 2.11-15.323 6.358zm40.574 16.339c.026 2.424.886 4.482 2.58 6.176s3.752 2.554 6.15 2.554c2.449 0 4.508-.86 6.202-2.554s2.554-3.752 2.527-6.176c.027-2.423-.833-4.482-2.527-6.176s-3.753-2.554-6.202-2.554c-2.398 0-4.456.86-6.15 2.554s-2.554 3.753-2.58 6.176zm28.847 9.459c2.241 0 4.196-.807 5.785-2.397 1.59-1.59 2.372-3.518 2.372-5.759s-.782-4.169-2.372-5.759c-1.589-1.59-3.544-2.397-5.785-2.397s-4.143.807-5.733 2.397c-1.589 1.59-2.423 3.518-2.423 5.759s.834 4.169 2.423 5.759c1.59 1.59 3.492 2.397 5.733 2.397zm-96.6-6.436c0-1.876-.678-3.492-2.007-4.821s-2.945-2.007-4.821-2.007-3.492.678-4.821 2.007-2.006 2.945-2.006 4.821.677 3.492 2.006 4.821 2.945 2.006 4.821 2.006 3.492-.677 4.821-2.006 2.007-2.945 2.007-4.821zm-29.108-17.329c-.756-.756-1.642-1.121-2.736-1.121-1.095 0-1.981.365-2.737 1.121-.755.755-1.12 1.641-1.12 2.736 0 1.094.365 1.98 1.12 2.736.756.756 1.642 1.121 2.737 1.121 1.094 0 1.98-.365 2.736-1.121s1.12-1.642 1.12-2.736c0-1.095-.364-1.981-1.12-2.736zm159.09-146.843c-2.58 2.58-3.883 5.707-3.909 9.382.026 3.674 1.329 6.801 3.909 9.381s5.707 3.883 9.355 3.883c3.7 0 6.827-1.303 9.407-3.883s3.883-5.707 3.857-9.381c.026-3.675-1.277-6.802-3.857-9.382-2.58-2.579-5.707-3.882-9.407-3.882-3.648 0-6.775 1.303-9.355 3.882zm51.597 55.245c.026-5.185-1.799-9.615-5.473-13.29-3.674-3.674-8.104-5.498-13.316-5.498-5.16 0-9.59 1.824-13.264 5.498-3.674 3.675-5.498 8.105-5.525 13.29.027 5.186 1.851 9.616 5.525 13.291 3.674 3.674 8.104 5.498 13.264 5.498 5.212 0 9.642-1.824 13.316-5.498 3.674-3.675 5.499-8.105 5.473-13.291zm10.397 43.128c.026-1.746-.599-3.257-1.824-4.482s-2.736-1.85-4.508-1.85c-1.72 0-3.232.625-4.456 1.85-1.225 1.225-1.851 2.736-1.877 4.482.026 1.746.652 3.257 1.877 4.482 1.224 1.225 2.736 1.85 4.456 1.85 1.772 0 3.283-.625 4.508-1.85s1.85-2.736 1.824-4.482zm-126.282-43.518c-5.915 5.915-8.886 13.055-8.886 21.446 0 2.293.235 4.508.678 6.619-3.857 1.095-7.323 3.153-10.372 6.202-4.742 4.743-7.14 10.476-7.14 17.199s2.398 12.456 7.14 17.199c4.743 4.743 10.45 7.114 17.173 7.114 4.43 0 8.469-1.016 12.039-3.075-.807 2.111-1.224 4.352-1.224 6.749 0 5.212 1.85 9.668 5.55 13.369 3.701 3.7 8.157 5.55 13.368 5.55 5.212 0 9.668-1.85 13.369-5.55 3.7-3.701 5.55-8.157 5.55-13.369 0-5.211-1.85-9.668-5.55-13.368-3.701-3.7-8.157-5.55-13.369-5.55-2.814 0-5.394.547-7.765 1.615 1.537-3.153 2.345-6.619 2.371-10.397 7.74-.339 14.385-3.284 19.961-8.86 5.916-5.916 8.886-13.056 8.886-21.447s-2.97-15.531-8.886-21.446c-5.915-5.916-13.055-8.887-21.446-8.887s-15.531 2.971-21.447 8.887zm42.972 55.635c0 1.772.625 3.284 1.876 4.535s2.762 1.876 4.534 1.876 3.283-.625 4.534-1.876 1.877-2.763 1.877-4.535-.626-3.283-1.877-4.534-2.762-1.876-4.534-1.876-3.283.625-4.534 1.876-1.876 2.762-1.876 4.534zm-55.402 71.923c0 1.616.6 2.997 1.746 4.144 1.147 1.146 2.502 1.719 4.117 1.719 1.616 0 3.023-.573 4.17-1.719 1.146-1.147 1.694-2.528 1.694-4.144 0-1.615-.548-2.997-1.694-4.143-1.147-1.147-2.554-1.72-4.17-1.72-1.615 0-2.97.573-4.117 1.72-1.146 1.146-1.746 2.528-1.746 4.143zm-11.57 15.114c.026-.807-.261-1.511-.834-2.084-.573-.574-1.277-.86-2.111-.86-.781 0-1.485.286-2.058.86-.574.573-.86 1.277-.886 2.084.026.808.312 1.512.886 2.085.573.573 1.277.86 2.058.86.834 0 1.538-.287 2.111-.86s.86-1.277.834-2.085zm158.543-128.262c0-2.866-.991-5.316-2.997-7.322-2.007-2.007-4.482-3.023-7.349-3.023-2.866 0-5.29 1.016-7.296 3.023-2.007 2.006-3.049 4.456-3.049 7.322 0 2.867 1.042 5.316 3.049 7.323 2.006 2.006 4.43 3.023 7.296 3.023 2.867 0 5.342-1.017 7.349-3.023 2.006-2.007 2.997-4.456 2.997-7.323zm-119.559-72.027q-5.42 0-9.251 3.831c-2.553 2.554-3.83 5.655-3.856 9.277.026 3.622 1.303 6.723 3.856 9.277 2.554 2.554 5.655 3.831 9.251 3.831 3.648 0 6.749-1.277 9.303-3.831s3.831-5.655 3.805-9.277c.026-3.622-1.251-6.723-3.805-9.277s-5.655-3.831-9.303-3.831zm17.121-.547c-1.407 0-2.58.495-3.57 1.485-.99.991-1.512 2.189-1.512 3.596 0 1.408.522 2.606 1.512 3.597.99.99 2.163 1.485 3.57 1.485s2.632-.495 3.622-1.485c.99-.991 1.459-2.189 1.459-3.597 0-1.407-.469-2.605-1.459-3.596-.99-.99-2.215-1.485-3.622-1.485zm17.381 2.267c0-1.511-.495-2.788-1.563-3.857-1.069-1.068-2.372-1.589-3.883-1.589s-2.762.521-3.831 1.589c-1.068 1.069-1.615 2.346-1.615 3.857 0 1.512.547 2.788 1.615 3.857 1.069 1.068 2.32 1.589 3.831 1.589s2.814-.521 3.883-1.589c1.068-1.069 1.563-2.345 1.563-3.857z" fill="#fff"/></g></svg>